<svg xmlns="http://www.w3.org/2000/svg" xmlns:xlink="http://www.w3.org/1999/xlink" width="1920" zoomAndPan="magnify" viewBox="0 0 1440 1447.9199" height="1920" preserveAspectRatio="xMidYMid meet" version="1.2"><defs><clipPath id="37f4de4302"><path d="M 107 318 L 1352.753906 318 L 1352.753906 1171.742188 L 107 1171.742188 Z M 107 318 "/></clipPath><clipPath id="e8b87204cb"><path d="M 305 268.039062 L 472 268.039062 L 472 340 L 305 340 Z M 305 268.039062 "/></clipPath><clipPath id="4ff45419b5"><path d="M 1221 482 L 1352.753906 482 L 1352.753906 1171.742188 L 1221 1171.742188 Z M 1221 482 "/></clipPath><clipPath id="6cacb44389"><path d="M 107 339 L 520 339 L 520 1171.742188 L 107 1171.742188 Z M 107 339 "/></clipPath><clipPath id="d062befff5"><path d="M 909 652 L 1222 652 L 1222 1171.742188 L 909 1171.742188 Z M 909 652 "/></clipPath><clipPath id="90c4a713d4"><path d="M 227 339 L 1091 339 L 1091 1171.742188 L 227 1171.742188 Z M 227 339 "/></clipPath><clipPath id="1291f7c5f8"><path d="M 781 279 L 1352.753906 279 L 1352.753906 685 L 781 685 Z M 781 279 "/></clipPath><clipPath id="924c3e816f"><path d="M 1221 482 L 1352.753906 482 L 1352.753906 720 L 1221 720 Z M 1221 482 "/></clipPath></defs><g id="e026082ac4"><g clip-rule="nonzero" clip-path="url(#37f4de4302)"><path style=" stroke:none;fill-rule:nonzero;fill:#5d5560;fill-opacity:1;" d="M 864.523438 339.382812 L 864.5 339.382812 C 739.378906 380.488281 623.070312 385.527344 519.269531 339.382812 L 471.628906 339.382812 C 409.777344 315.335938 352.304688 307.839844 305.152344 339.382812 C 181.246094 339.382812 87.773438 451.71875 110.425781 573.390625 C 125.496094 654.195312 140.539062 735.027344 155.605469 815.859375 C 159.898438 838.925781 160.328125 862.523438 156.886719 885.746094 C 149.175781 937.832031 141.441406 989.945312 133.707031 1042.035156 C 123.5625 1110.363281 176.574219 1171.742188 245.738281 1171.742188 L 388.304688 1171.742188 C 572.269531 1142.785156 747.488281 1138.953125 909.953125 1171.742188 C 1017.699219 1141.507812 1122.246094 1136.5 1221.683594 1171.742188 L 1239.386719 1171.742188 C 1301.945312 1171.742188 1352.648438 1121.082031 1352.648438 1058.628906 L 1352.648438 482.066406 Z M 864.523438 339.382812 "/></g><g clip-rule="nonzero" clip-path="url(#e8b87204cb)"><path style=" stroke:none;fill-rule:nonzero;fill:#cdc7b9;fill-opacity:1;" d="M 471.628906 303.511719 L 471.628906 339.382812 L 305.152344 339.382812 L 305.152344 303.511719 C 305.152344 283.90625 321.050781 268.039062 340.664062 268.039062 L 436.144531 268.039062 C 455.730469 268.039062 471.628906 283.90625 471.628906 303.511719 Z M 471.628906 303.511719 "/></g><g clip-rule="nonzero" clip-path="url(#4ff45419b5)"><path style=" stroke:none;fill-rule:nonzero;fill:#5d5560;fill-opacity:1;" d="M 1221.683594 652.011719 C 1300.488281 616.039062 1352.648438 553.359375 1352.648438 482.066406 L 1352.648438 1058.628906 C 1352.648438 1121.082031 1301.945312 1171.742188 1239.386719 1171.742188 L 1221.683594 1171.742188 Z M 1221.683594 652.011719 "/></g><g clip-rule="nonzero" clip-path="url(#6cacb44389)"><path style=" stroke:none;fill-rule:nonzero;fill:#5d5560;fill-opacity:1;" d="M 519.269531 339.382812 L 518.839844 341.238281 C 506.410156 397.195312 461.632812 439.820312 405.332031 450.890625 C 364.269531 458.972656 317.109375 477.421875 281.144531 517.738281 C 223.585938 582.328125 210.453125 685.398438 249.175781 781.519531 C 273.085938 840.886719 271.402344 906.882812 247.269531 966.148438 C 232.828125 1001.542969 231.496094 1041.105469 245.433594 1076.601562 C 267.359375 1132.429688 324.089844 1170.433594 388.304688 1171.742188 L 245.738281 1171.742188 C 176.574219 1171.742188 123.5625 1110.363281 133.707031 1042.035156 C 141.441406 989.945312 149.175781 937.832031 156.886719 885.746094 C 160.328125 862.523438 159.898438 838.925781 155.605469 815.859375 C 140.539062 735.027344 125.496094 654.195312 110.425781 573.390625 C 87.773438 451.71875 181.246094 339.382812 305.152344 339.382812 Z M 519.269531 339.382812 "/></g><g clip-rule="nonzero" clip-path="url(#d062befff5)"><path style=" stroke:none;fill-rule:nonzero;fill:#e15c63;fill-opacity:1;" d="M 1221.683594 652.011719 L 1221.683594 1171.742188 L 909.953125 1171.742188 C 951.488281 1119.976562 1004.855469 1040.703125 1043.101562 933.917969 C 1078.714844 834.460938 1088.65625 745.445312 1090.71875 683.515625 C 1138.707031 680.730469 1183.335938 669.535156 1221.683594 652.011719 Z M 1221.683594 652.011719 "/></g><g clip-rule="nonzero" clip-path="url(#90c4a713d4)"><path style=" stroke:none;fill-rule:nonzero;fill:#ffc05a;fill-opacity:1;" d="M 983.585938 838.800781 C 983.585938 715.445312 889.5625 614.03125 769.167969 602.160156 L 769.269531 600.980469 C 758.546875 568.871094 747.847656 536.789062 737.125 504.683594 C 731.976562 489.222656 726.804688 473.757812 721.65625 458.292969 C 674.039062 458.292969 626.402344 458.292969 578.785156 458.292969 C 574.820312 474.160156 570.851562 490 566.882812 505.863281 C 558.945312 537.570312 551.011719 569.273438 543.074219 600.980469 L 543.074219 601.253906 C 482.050781 604.265625 427.078125 630.222656 386.597656 670.640625 C 343.5 713.664062 316.855469 773.132812 316.855469 838.800781 C 316.855469 970.140625 423.460938 1076.601562 554.980469 1076.601562 L 745.460938 1076.601562 C 811.207031 1076.601562 870.75 1049.992188 913.84375 1006.964844 C 956.941406 963.914062 983.585938 904.472656 983.585938 838.800781 Z M 781.171875 482.066406 C 781.171875 593.722656 909.097656 684.21875 1066.910156 684.21875 C 1074.921875 684.21875 1082.855469 683.992188 1090.71875 683.515625 C 1088.65625 745.445312 1078.714844 834.460938 1043.101562 933.917969 C 1004.855469 1040.703125 951.488281 1119.976562 909.953125 1171.742188 L 388.304688 1171.742188 C 324.089844 1170.433594 267.359375 1132.429688 245.433594 1076.601562 C 231.496094 1041.105469 232.828125 1001.542969 247.269531 966.148438 C 271.402344 906.882812 273.085938 840.886719 249.175781 781.519531 C 210.453125 685.398438 223.585938 582.328125 281.144531 517.738281 C 317.109375 477.421875 364.269531 458.972656 405.332031 450.890625 C 461.632812 439.820312 506.410156 397.195312 518.839844 341.238281 L 519.269531 339.382812 L 864.5 339.382812 C 813.015625 375.957031 781.171875 426.363281 781.171875 482.066406 Z M 781.171875 482.066406 "/></g><path style=" stroke:none;fill-rule:nonzero;fill:#5d5560;fill-opacity:1;" d="M 769.167969 602.160156 C 889.5625 614.03125 983.585938 715.445312 983.585938 838.800781 C 983.585938 904.472656 956.941406 963.914062 913.84375 1006.964844 C 870.75 1049.992188 811.207031 1076.601562 745.460938 1076.601562 L 554.980469 1076.601562 C 423.460938 1076.601562 316.855469 970.140625 316.855469 838.800781 C 316.855469 773.132812 343.5 713.664062 386.597656 670.636719 C 427.078125 630.222656 482.050781 604.265625 543.074219 601.253906 C 547.019531 601.078125 550.988281 600.976562 554.980469 600.976562 L 745.460938 600.976562 C 753.472656 600.980469 761.382812 601.378906 769.167969 602.160156 Z M 650.207031 922.042969 L 650.207031 850.699219 C 650.207031 824.417969 607.566406 803.132812 554.980469 803.132812 C 502.367188 803.132812 459.726562 824.417969 459.726562 850.699219 L 459.726562 922.042969 C 459.726562 948.300781 502.367188 969.585938 554.980469 969.585938 C 607.566406 969.585938 650.207031 948.300781 650.207031 922.042969 Z M 650.207031 922.042969 "/><g clip-rule="nonzero" clip-path="url(#1291f7c5f8)"><path style=" stroke:none;fill-rule:nonzero;fill:#655f68;fill-opacity:1;" d="M 1352.648438 482.066406 C 1352.648438 553.359375 1300.488281 616.039062 1221.683594 652.011719 C 1183.335938 669.535156 1138.707031 680.730469 1090.71875 683.515625 C 1082.855469 683.992188 1074.921875 684.21875 1066.910156 684.21875 C 909.097656 684.21875 781.171875 593.722656 781.171875 482.066406 C 781.171875 426.363281 813.015625 375.957031 864.5 339.382812 L 864.523438 339.382812 C 916.257812 302.65625 987.828125 279.9375 1066.910156 279.9375 C 1224.722656 279.9375 1352.648438 370.433594 1352.648438 482.066406 Z M 1209.777344 541.535156 L 1209.777344 422.625 L 924.042969 422.625 L 924.042969 541.535156 Z M 1209.777344 541.535156 "/></g><path style=" stroke:none;fill-rule:nonzero;fill:#e7f2f1;fill-opacity:1;" d="M 924.042969 422.625 L 1209.777344 422.625 L 1209.777344 541.535156 L 924.042969 541.535156 Z M 924.042969 422.625 "/><path style=" stroke:none;fill-rule:nonzero;fill:#d6eae8;fill-opacity:1;" d="M 737.125 504.683594 C 747.847656 536.789062 758.546875 568.871094 769.269531 600.980469 L 769.167969 602.160156 C 761.382812 601.378906 753.472656 600.980469 745.460938 600.980469 L 554.980469 600.980469 C 550.988281 600.980469 547.019531 601.078125 543.074219 601.253906 L 543.074219 600.980469 C 551.011719 569.273438 558.945312 537.570312 566.882812 505.863281 C 578.785156 513.269531 608.695312 529.636719 650.207031 529.636719 C 664.246094 529.636719 698.300781 527.777344 733.558594 505.863281 Z M 737.125 504.683594 "/><path style=" stroke:none;fill-rule:nonzero;fill:#e7f2f1;fill-opacity:1;" d="M 721.65625 458.292969 C 726.804688 473.757812 731.976562 489.222656 737.125 504.683594 L 733.558594 505.863281 C 698.300781 527.777344 664.246094 529.636719 650.207031 529.636719 C 608.695312 529.636719 578.785156 513.269531 566.882812 505.863281 C 570.851562 490 574.820312 474.160156 578.785156 458.292969 C 626.402344 458.292969 674.039062 458.292969 721.65625 458.292969 Z M 721.65625 458.292969 "/><path style=" stroke:none;fill-rule:nonzero;fill:#655f68;fill-opacity:1;" d="M 650.207031 922.042969 C 650.207031 895.761719 607.566406 874.472656 554.980469 874.472656 C 502.367188 874.472656 459.726562 895.761719 459.726562 922.042969 L 459.726562 850.699219 C 459.726562 824.417969 502.367188 803.132812 554.980469 803.132812 C 607.566406 803.132812 650.207031 824.417969 650.207031 850.699219 Z M 650.207031 922.042969 "/><path style=" stroke:none;fill-rule:nonzero;fill:#e7f2f1;fill-opacity:1;" d="M 554.980469 874.472656 C 607.566406 874.472656 650.207031 895.761719 650.207031 922.042969 C 650.207031 948.300781 607.566406 969.585938 554.980469 969.585938 C 502.367188 969.585938 459.726562 948.300781 459.726562 922.042969 C 459.726562 895.761719 502.367188 874.472656 554.980469 874.472656 Z M 554.980469 874.472656 "/><path style=" stroke:none;fill-rule:nonzero;fill:#f9b132;fill-opacity:1;" d="M 879.917969 634.917969 L 876.777344 640.390625 C 859.199219 628.742188 839.964844 619.378906 819.519531 612.726562 C 810.378906 595.605469 804.476562 577.382812 802.269531 558.402344 C 819.371094 588.101562 846.191406 614.257812 879.917969 634.917969 Z M 879.917969 634.917969 "/><g clip-rule="nonzero" clip-path="url(#924c3e816f)"><path style=" stroke:none;fill-rule:nonzero;fill:#524956;fill-opacity:1;" d="M 1221.683594 652.011719 C 1300.488281 616.039062 1352.648438 553.359375 1352.648438 482.066406 L 1352.648438 616.089844 C 1330.546875 655.476562 1291.472656 688.761719 1241.773438 711.457031 C 1235.269531 714.441406 1228.5625 717.230469 1221.683594 719.839844 Z M 1221.683594 652.011719 "/></g><path style=" stroke:none;fill-rule:nonzero;fill:#d14b62;fill-opacity:1;" d="M 1221.683594 652.011719 L 1221.683594 719.839844 C 1188.15625 732.542969 1150.636719 740.648438 1110.808594 742.960938 C 1102.949219 743.4375 1095.011719 743.664062 1087 743.664062 C 1086.851562 743.664062 1086.675781 743.664062 1086.523438 743.664062 C 1088.859375 721.621094 1090.113281 701.414062 1090.71875 683.515625 C 1138.707031 680.730469 1183.335938 669.535156 1221.683594 652.011719 Z M 1221.683594 652.011719 "/><path style=" stroke:none;fill-rule:nonzero;fill:#f9b132;fill-opacity:1;" d="M 1090.71875 683.515625 C 1090.113281 701.414062 1088.859375 721.621094 1086.523438 743.664062 C 1037.652344 743.613281 991.671875 734.875 951.488281 719.515625 C 933.007812 687.734375 907.367188 660.621094 876.777344 640.390625 L 879.917969 634.917969 C 930.042969 665.644531 995.414062 684.21875 1066.910156 684.21875 C 1074.921875 684.21875 1082.855469 683.992188 1090.71875 683.515625 Z M 1090.71875 683.515625 "/><path style=" stroke:none;fill-rule:nonzero;fill:#f9b132;fill-opacity:1;" d="M 1003.675781 898.246094 C 1003.675781 963.914062 977.03125 1023.359375 933.9375 1066.410156 C 890.84375 1109.433594 831.300781 1136.042969 765.554688 1136.042969 L 575.070312 1136.042969 C 459.222656 1136.042969 362.714844 1053.429688 341.367188 943.984375 C 380.21875 1022.554688 461.28125 1076.601562 554.980469 1076.601562 L 745.460938 1076.601562 C 811.207031 1076.601562 870.75 1049.992188 913.84375 1006.964844 C 956.941406 963.914062 983.585938 904.472656 983.585938 838.800781 C 983.585938 823.1875 982.078125 807.902344 979.191406 793.140625 C 994.886719 824.820312 1003.675781 860.515625 1003.675781 898.246094 Z M 1003.675781 898.246094 "/></g></svg>