<svg xmlns="http://www.w3.org/2000/svg" xmlns:xlink="http://www.w3.org/1999/xlink" width="1920" zoomAndPan="magnify" viewBox="0 0 1440 1447.9199" height="1920" preserveAspectRatio="xMidYMid meet" version="1.2"><defs><clipPath id="2c9dd27894"><path d="M 242 168 L 1153 168 L 1153 1305.28125 L 242 1305.28125 Z M 242 168 "/></clipPath><clipPath id="c2ac259a77"><path d="M 336 227 L 1060 227 L 1060 1305.28125 L 336 1305.28125 Z M 336 227 "/></clipPath><clipPath id="e54cd2295a"><path d="M 465 134.597656 L 931 134.597656 L 931 320 L 465 320 Z M 465 134.597656 "/></clipPath></defs><g id="8f50f48594"><path style=" stroke:none;fill-rule:nonzero;fill:#ffb827;fill-opacity:1;" d="M 249.121094 175.226562 L 1146.046875 175.226562 L 1146.046875 1298.304688 L 249.121094 1298.304688 Z M 249.121094 175.226562 "/><g clip-rule="nonzero" clip-path="url(#2c9dd27894)"><path style=" stroke:none;fill-rule:nonzero;fill:#000000;fill-opacity:1;" d="M 1152.917969 1305.28125 L 242.1875 1305.28125 L 242.1875 546.78125 L 256.136719 546.78125 L 256.136719 1291.472656 L 1139.113281 1291.472656 L 1139.113281 182.199219 L 256.136719 182.199219 L 256.136719 468.113281 L 242.1875 468.113281 L 242.1875 168.25 L 1152.917969 168.25 Z M 1152.917969 1305.28125 "/></g><path style=" stroke:none;fill-rule:nonzero;fill:#ffffff;fill-opacity:1;" d="M 342.980469 234.21875 L 1052.269531 234.21875 L 1052.269531 1298.335938 L 342.980469 1298.335938 Z M 342.980469 234.21875 "/><g clip-rule="nonzero" clip-path="url(#c2ac259a77)"><path style=" stroke:none;fill-rule:nonzero;fill:#000000;fill-opacity:1;" d="M 1059.171875 1305.28125 L 336.082031 1305.28125 L 336.082031 227.359375 L 1059.171875 227.359375 Z M 349.882812 1291.472656 L 1045.222656 1291.472656 L 1045.222656 241.164062 L 349.882812 241.164062 Z M 349.882812 1291.472656 "/></g><path style=" stroke:none;fill-rule:nonzero;fill:#ffffff;fill-opacity:1;" d="M 922.144531 165.375 L 922.144531 197.734375 L 899.714844 221.175781 L 922.144531 289.488281 L 884.761719 311.925781 L 847.378906 289.488281 L 809.992188 311.925781 L 772.609375 289.488281 L 735.226562 311.925781 L 697.839844 289.488281 L 660.457031 311.925781 L 623.074219 289.488281 L 585.691406 311.925781 L 548.304688 289.488281 L 510.921875 311.925781 L 473.539062 289.488281 L 495.96875 221.175781 L 473.539062 197.734375 L 473.539062 165.375 L 497.40625 141.5 L 898.996094 141.5 C 907.621094 150.847656 912.941406 156.023438 922.144531 165.375 Z M 922.144531 165.375 "/><g clip-rule="nonzero" clip-path="url(#e54cd2295a)"><path style=" stroke:none;fill-rule:nonzero;fill:#000000;fill-opacity:1;" d="M 809.847656 319.980469 L 772.464844 297.542969 L 735.082031 319.980469 L 697.699219 297.542969 L 660.3125 319.980469 L 622.929688 297.542969 L 585.546875 319.980469 L 548.160156 297.542969 L 510.777344 319.980469 L 465.054688 292.507812 L 487.917969 222.757812 L 466.347656 200.320312 L 466.347656 162.351562 L 494.242188 134.453125 L 901.582031 134.453125 L 929.476562 162.351562 L 929.476562 200.320312 L 907.910156 222.757812 L 930.773438 292.507812 L 885.046875 319.980469 L 847.664062 297.542969 Z M 847.378906 281.433594 L 884.761719 303.871094 L 913.804688 286.46875 L 891.804688 219.449219 L 915.242188 195 L 915.242188 168.394531 L 895.542969 148.691406 L 499.707031 148.691406 L 480.007812 168.394531 L 480.007812 195 L 503.445312 219.449219 L 481.445312 286.46875 L 510.492188 303.871094 L 547.875 281.433594 L 585.257812 303.871094 L 622.640625 281.433594 L 660.027344 303.871094 L 697.410156 281.433594 L 734.792969 303.871094 L 772.175781 281.433594 L 809.5625 303.871094 L 847.375 281.433594 Z M 847.378906 281.433594 "/></g><path style=" stroke:none;fill-rule:nonzero;fill:#000000;fill-opacity:1;" d="M 556.359375 214.128906 L 838.75 214.128906 L 838.75 227.933594 L 556.359375 227.933594 Z M 408.546875 372.472656 L 986.703125 372.472656 L 986.703125 386.277344 L 408.546875 386.277344 Z M 408.546875 439.78125 L 986.703125 439.78125 L 986.703125 453.585938 L 408.546875 453.585938 Z M 408.546875 507.230469 L 986.703125 507.230469 L 986.703125 521.039062 L 408.546875 521.039062 Z M 665.203125 758.769531 L 408.546875 758.769531 L 408.546875 599.707031 L 422.351562 599.707031 L 422.351562 744.964844 L 665.203125 744.964844 Z M 665.203125 758.769531 "/><path style=" stroke:none;fill-rule:nonzero;fill:#000000;fill-opacity:1;" d="M 442.480469 686.285156 C 430.546875 686.285156 422.351562 685.421875 421.488281 685.277344 L 414.585938 684.558594 L 416.167969 670.753906 L 423.070312 671.472656 C 423.5 671.472656 469.511719 676.363281 502.4375 662.125 C 514.660156 656.800781 523 651.191406 530.90625 645.726562 C 545.574219 635.660156 559.519531 626.023438 593.308594 620.558594 L 600.210938 619.410156 L 602.511719 633.070312 L 595.609375 634.222656 C 564.839844 639.257812 552.761719 647.597656 538.816406 657.089844 C 530.332031 662.988281 521.417969 669.027344 507.902344 674.78125 C 486.191406 684.273438 460.164062 686.285156 442.480469 686.285156 Z M 986.703125 758.769531 L 729.90625 758.769531 L 729.90625 599.707031 L 743.851562 599.707031 L 743.851562 744.964844 L 986.703125 744.964844 Z M 986.703125 758.769531 "/><path style=" stroke:none;fill-rule:nonzero;fill:#000000;fill-opacity:1;" d="M 743.707031 699.660156 L 736.808594 699.660156 L 736.808594 685.855469 L 743.707031 685.855469 C 774.910156 685.855469 783.105469 678.804688 798.203125 666.152344 C 804.671875 660.683594 812.007812 654.5 822.359375 647.597656 C 843.496094 633.648438 859.023438 638.394531 875.414062 643.425781 C 889.648438 647.742188 904.460938 652.199219 926.890625 646.589844 L 933.648438 644.867188 L 936.953125 658.382812 L 930.195312 660.109375 C 904.027344 666.726562 885.910156 661.117188 871.246094 656.660156 C 855.714844 651.914062 845.363281 648.75 829.835938 659.101562 C 820.058594 665.574219 813.15625 671.472656 806.972656 676.648438 C 791.300781 690.023438 779.941406 699.660156 743.707031 699.660156 Z M 743.707031 699.660156 "/><path style=" stroke:none;fill-rule:nonzero;fill:#000000;fill-opacity:1;" d="M 913.949219 668.738281 C 897.414062 668.738281 884.1875 663.707031 872.828125 659.535156 C 856.722656 653.496094 845.078125 649.035156 829.980469 659.101562 L 824.226562 662.988281 L 816.605469 651.335938 L 822.359375 647.453125 C 843.496094 633.503906 860.894531 640.121094 877.714844 646.445312 C 893.101562 652.199219 908.917969 658.242188 931.632812 652.632812 L 938.390625 650.90625 L 941.699219 664.425781 L 934.941406 666.148438 C 928.050781 667.878906 921.054688 668.742188 913.949219 668.738281 Z M 913.949219 668.738281 "/><path style=" stroke:none;fill-rule:nonzero;fill:#1193ff;fill-opacity:1;" d="M 658.300781 956.519531 C 658.300781 981.113281 650.96875 1003.980469 638.316406 1023.109375 C 636.945312 1025.203125 635.511719 1027.253906 634.015625 1029.261719 C 632.519531 1031.269531 630.964844 1033.226562 629.34375 1035.136719 C 627.726562 1037.046875 626.050781 1038.90625 624.320312 1040.710938 C 622.585938 1042.519531 620.796875 1044.269531 618.957031 1045.964844 C 617.113281 1047.660156 615.222656 1049.296875 613.277344 1050.871094 C 611.335938 1052.449219 609.34375 1053.964844 607.304688 1055.417969 C 605.269531 1056.875 603.1875 1058.261719 601.0625 1059.585938 C 598.941406 1060.910156 596.777344 1062.167969 594.574219 1063.359375 C 592.375 1064.550781 590.136719 1065.671875 587.863281 1066.722656 C 585.59375 1067.773438 583.292969 1068.753906 580.960938 1069.660156 C 578.628906 1070.570312 576.269531 1071.40625 573.882812 1072.167969 C 571.5 1072.929688 569.09375 1073.617188 566.667969 1074.226562 C 564.242188 1074.839844 561.796875 1075.378906 559.335938 1075.835938 C 556.878906 1076.296875 554.40625 1076.683594 551.921875 1076.988281 C 549.4375 1077.296875 546.945312 1077.527344 544.449219 1077.679688 C 541.949219 1077.832031 539.449219 1077.90625 536.945312 1077.902344 C 469.800781 1077.902344 415.449219 1023.539062 415.449219 956.519531 C 415.449219 889.5 469.800781 834.992188 536.945312 834.992188 C 603.949219 834.992188 658.300781 889.355469 658.300781 956.519531 Z M 658.300781 956.519531 "/><path style=" stroke:none;fill-rule:nonzero;fill:#000000;fill-opacity:1;" d="M 536.945312 1084.808594 C 466.0625 1084.808594 408.546875 1027.28125 408.546875 956.519531 C 408.546875 885.617188 466.203125 828.089844 536.945312 828.089844 C 607.6875 828.089844 665.203125 885.761719 665.203125 956.519531 C 665.203125 981.832031 657.871094 1006.136719 644.066406 1026.992188 C 642.617188 1029.203125 641.097656 1031.367188 639.515625 1033.484375 C 637.929688 1035.601562 636.285156 1037.667969 634.570312 1039.679688 C 632.859375 1041.695312 631.085938 1043.65625 629.253906 1045.5625 C 627.421875 1047.464844 625.53125 1049.3125 623.582031 1051.101562 C 621.636719 1052.886719 619.632812 1054.613281 617.582031 1056.277344 C 615.527344 1057.941406 613.421875 1059.539062 611.269531 1061.074219 C 609.113281 1062.605469 606.914062 1064.074219 604.671875 1065.46875 C 602.425781 1066.867188 600.140625 1068.191406 597.816406 1069.449219 C 595.488281 1070.703125 593.125 1071.886719 590.726562 1072.996094 C 588.328125 1074.105469 585.894531 1075.140625 583.433594 1076.097656 C 580.96875 1077.054688 578.476562 1077.9375 575.960938 1078.742188 C 573.441406 1079.546875 570.898438 1080.269531 568.335938 1080.917969 C 565.773438 1081.566406 563.191406 1082.132812 560.59375 1082.617188 C 557.996094 1083.105469 555.386719 1083.511719 552.761719 1083.835938 C 550.140625 1084.160156 547.507812 1084.40625 544.871094 1084.566406 C 542.230469 1084.730469 539.589844 1084.808594 536.945312 1084.808594 Z M 536.945312 841.898438 C 473.824219 841.898438 422.351562 893.242188 422.351562 956.519531 C 422.351562 1019.65625 473.683594 1071 536.945312 1071 C 541.671875 1071.007812 546.378906 1070.722656 551.070312 1070.144531 C 555.757812 1069.566406 560.394531 1068.703125 564.976562 1067.546875 C 569.558594 1066.394531 574.050781 1064.960938 578.457031 1063.246094 C 582.859375 1061.535156 587.140625 1059.554688 591.300781 1057.308594 C 595.457031 1055.066406 599.460938 1052.570312 603.308594 1049.828125 C 607.15625 1047.085938 610.820312 1044.113281 614.296875 1040.914062 C 617.777344 1037.71875 621.042969 1034.316406 624.101562 1030.710938 C 627.15625 1027.105469 629.976562 1023.324219 632.5625 1019.371094 C 644.929688 1000.816406 651.398438 979.101562 651.398438 956.519531 C 651.398438 893.242188 600.066406 841.898438 536.945312 841.898438 Z M 536.945312 841.898438 "/><path style=" stroke:none;fill-rule:nonzero;fill:#ffffff;fill-opacity:1;" d="M 658.300781 956.519531 C 658.300781 981.113281 650.96875 1003.980469 638.316406 1023.109375 L 536.945312 956.519531 L 536.945312 834.992188 C 603.949219 834.992188 658.300781 889.355469 658.300781 956.519531 Z M 658.300781 956.519531 "/><path style=" stroke:none;fill-rule:nonzero;fill:#000000;fill-opacity:1;" d="M 640.328125 1032.601562 L 530.046875 960.117188 L 530.046875 827.945312 L 536.945312 827.945312 C 607.6875 827.945312 665.203125 885.617188 665.203125 956.375 C 665.203125 981.6875 657.871094 1005.996094 644.066406 1026.847656 Z M 543.847656 952.78125 L 636.15625 1013.472656 C 646.078125 996.214844 651.398438 976.800781 651.398438 956.519531 C 651.398438 895.683594 603.804688 845.78125 543.847656 842.183594 Z M 543.847656 952.78125 "/><path style=" stroke:none;fill-rule:nonzero;fill:#000000;fill-opacity:1;" d="M 791.300781 827.945312 L 986.703125 827.945312 L 986.703125 841.753906 L 791.300781 841.753906 Z M 791.300781 827.945312 "/><path style=" stroke:none;fill-rule:nonzero;fill:#000000;fill-opacity:1;" d="M 729.90625 895.398438 L 986.558594 895.398438 L 986.558594 909.203125 L 729.90625 909.203125 Z M 729.90625 895.398438 "/><path style=" stroke:none;fill-rule:nonzero;fill:#000000;fill-opacity:1;" d="M 729.90625 962.847656 L 986.558594 962.847656 L 986.558594 976.65625 L 729.90625 976.65625 Z M 729.90625 962.847656 "/><path style=" stroke:none;fill-rule:nonzero;fill:#000000;fill-opacity:1;" d="M 729.90625 1030.15625 L 940.117188 1030.15625 L 940.117188 1043.960938 L 729.90625 1043.960938 Z M 729.90625 1030.15625 "/><path style=" stroke:none;fill-rule:nonzero;fill:#1193ff;fill-opacity:1;" d="M 422.207031 1145.210938 L 979.660156 1145.210938 L 979.660156 1230.925781 L 422.207031 1230.925781 Z M 422.207031 1145.210938 "/><path style=" stroke:none;fill-rule:nonzero;fill:#000000;fill-opacity:1;" d="M 986.703125 1237.972656 L 415.304688 1237.972656 L 415.304688 1138.453125 L 986.703125 1138.453125 Z M 429.109375 1224.023438 L 972.757812 1224.023438 L 972.757812 1152.257812 L 429.109375 1152.257812 Z M 429.109375 1224.023438 "/><path style=" stroke:none;fill-rule:nonzero;fill:#1193ff;fill-opacity:1;" d="M 422.207031 1145.210938 L 521.5625 1145.210938 L 521.5625 1230.925781 L 422.207031 1230.925781 Z M 422.207031 1145.210938 "/><path style=" stroke:none;fill-rule:nonzero;fill:#000000;fill-opacity:1;" d="M 528.464844 1237.972656 L 415.304688 1237.972656 L 415.304688 1138.453125 L 528.464844 1138.453125 Z M 429.109375 1224.023438 L 514.515625 1224.023438 L 514.515625 1152.257812 L 429.109375 1152.257812 Z M 429.109375 1224.023438 "/><path style=" stroke:none;fill-rule:nonzero;fill:#1193ff;fill-opacity:1;" d="M 521.476562 1145.3125 L 736.863281 1145.3125 L 736.863281 1231.027344 L 521.476562 1231.027344 Z M 521.476562 1145.3125 "/><path style=" stroke:none;fill-rule:nonzero;fill:#000000;fill-opacity:1;" d="M 743.851562 1237.972656 L 514.515625 1237.972656 L 514.515625 1138.453125 L 743.851562 1138.453125 Z M 528.464844 1224.023438 L 729.90625 1224.023438 L 729.90625 1152.257812 L 528.464844 1152.257812 Z M 528.464844 1224.023438 "/><path style=" stroke:none;fill-rule:nonzero;fill:#ffffff;fill-opacity:1;" d="M 954.640625 645.007812 C 954.640625 504.929688 841.050781 391.3125 701.003906 391.3125 C 560.957031 391.3125 447.371094 504.929688 447.371094 645.007812 C 447.371094 785.089844 560.957031 898.707031 701.003906 898.707031 C 841.050781 898.847656 954.640625 785.230469 954.640625 645.007812 Z M 954.640625 645.007812 "/><path style=" stroke:none;fill-rule:nonzero;fill:#000000;fill-opacity:1;" d="M 701.003906 905.753906 C 557.21875 905.753906 440.324219 788.828125 440.324219 645.007812 C 440.324219 501.191406 557.21875 384.265625 701.003906 384.265625 C 844.789062 384.265625 961.683594 501.191406 961.683594 645.007812 C 961.683594 788.828125 844.644531 905.753906 701.003906 905.753906 Z M 701.003906 398.214844 C 564.984375 398.214844 454.269531 508.957031 454.269531 645.007812 C 454.269531 781.0625 564.984375 891.800781 701.003906 891.800781 C 837.023438 891.800781 947.738281 781.0625 947.738281 645.007812 C 947.738281 508.957031 837.023438 398.214844 701.003906 398.214844 Z M 701.003906 398.214844 "/><path style=" stroke:none;fill-rule:nonzero;fill:#9d7143;fill-opacity:1;" d="M 998.78125 880.152344 L 926.601562 948.753906 C 917.113281 957.816406 902.015625 957.382812 892.957031 947.890625 L 856.578125 909.636719 C 847.519531 900.144531 847.953125 885.042969 857.441406 875.980469 L 929.621094 807.378906 C 939.113281 798.320312 954.207031 798.75 963.265625 808.242188 L 999.644531 846.5 C 1008.703125 855.992188 1008.269531 871.09375 998.78125 880.152344 Z M 998.78125 880.152344 "/><path style=" stroke:none;fill-rule:nonzero;fill:#000000;fill-opacity:1;" d="M 910.210938 962.273438 C 902.015625 962.273438 893.964844 959.109375 887.925781 952.78125 L 851.691406 914.527344 C 840.042969 902.300781 840.476562 882.742188 852.839844 871.09375 L 925.019531 802.492188 C 937.386719 790.839844 956.796875 791.273438 968.585938 803.640625 L 1004.820312 841.753906 C 1010.429688 847.648438 1013.449219 855.558594 1013.304688 863.757812 C 1013.160156 871.953125 1009.710938 879.578125 1003.8125 885.332031 L 931.632812 953.933594 C 925.453125 959.539062 917.832031 962.273438 910.210938 962.273438 Z M 946.011719 807.8125 C 941.84375 807.8125 937.671875 809.394531 934.367188 812.414062 L 862.1875 881.015625 C 855.429688 887.488281 855.140625 898.128906 861.613281 904.890625 L 897.988281 943 C 904.460938 949.761719 915.097656 950.046875 921.855469 943.578125 L 994.035156 874.976562 C 997.34375 871.8125 999.214844 867.640625 999.355469 863.183594 C 999.5 858.722656 997.773438 854.410156 994.753906 851.101562 L 958.378906 812.84375 C 954.925781 809.539062 950.46875 807.8125 946.011719 807.8125 Z M 998.78125 880.152344 Z M 998.78125 880.152344 "/><path style=" stroke:none;fill-rule:nonzero;fill:#9d7143;fill-opacity:1;" d="M 1256.730469 1151.539062 L 1184.550781 1220.140625 C 1175.0625 1229.199219 1159.964844 1228.769531 1150.90625 1219.277344 L 1137.820312 1205.472656 C 1128.761719 1195.980469 1129.195312 1180.878906 1138.683594 1171.816406 L 1210.863281 1103.214844 C 1220.351562 1094.15625 1235.449219 1094.585938 1244.507812 1104.078125 L 1257.59375 1117.886719 C 1266.652344 1127.378906 1266.21875 1142.476562 1256.730469 1151.539062 Z M 1256.730469 1151.539062 "/><path style=" stroke:none;fill-rule:nonzero;fill:#000000;fill-opacity:1;" d="M 1168.160156 1233.660156 L 1167.296875 1233.660156 C 1159.101562 1233.515625 1151.480469 1230.0625 1145.730469 1224.167969 L 1132.644531 1210.359375 C 1121 1197.992188 1121.429688 1178.578125 1133.796875 1166.785156 L 1205.976562 1098.183594 C 1218.339844 1086.53125 1237.75 1086.964844 1249.542969 1099.332031 L 1262.625 1113.140625 C 1274.273438 1125.507812 1273.839844 1144.921875 1261.476562 1156.714844 L 1189.296875 1225.316406 C 1183.542969 1230.640625 1176.066406 1233.660156 1168.160156 1233.660156 Z M 1227.253906 1103.648438 C 1223.085938 1103.648438 1218.914062 1105.230469 1215.609375 1108.25 L 1143.429688 1176.851562 C 1136.671875 1183.324219 1136.382812 1193.964844 1142.855469 1200.726562 L 1155.9375 1214.53125 C 1159.101562 1217.839844 1163.269531 1219.710938 1167.726562 1219.710938 C 1172.1875 1219.710938 1176.5 1218.128906 1179.804688 1215.105469 L 1251.984375 1146.503906 C 1258.742188 1140.035156 1259.03125 1129.390625 1252.5625 1122.632812 L 1239.476562 1108.824219 C 1236.167969 1105.375 1231.710938 1103.648438 1227.253906 1103.648438 Z M 1256.730469 1151.539062 Z M 1256.730469 1151.539062 "/><path style=" stroke:none;fill-rule:nonzero;fill:#9d7143;fill-opacity:1;" d="M 924.734375 950.523438 L 1000.792969 878.183594 L 1212.863281 1101.203125 L 1136.800781 1173.542969 Z M 924.734375 950.523438 "/><path style=" stroke:none;fill-rule:nonzero;fill:#000000;fill-opacity:1;" d="M 1136.527344 1183.464844 L 914.8125 950.335938 L 1000.9375 868.503906 L 1222.511719 1101.632812 Z M 934.511719 950.910156 L 1136.957031 1163.90625 L 1202.957031 1101.203125 L 1000.507812 888.207031 Z M 934.511719 950.910156 "/><path style=" stroke:none;fill-rule:nonzero;fill:#9d7143;fill-opacity:1;" d="M 505.3125 433.453125 C 388.417969 544.625 383.816406 729.429688 494.960938 846.355469 C 606.105469 963.28125 790.871094 967.882812 907.765625 856.710938 C 1024.664062 745.539062 1029.265625 560.730469 918.117188 443.804688 C 806.972656 326.882812 622.210938 322.28125 505.3125 433.453125 Z M 861.324219 807.8125 C 771.457031 893.242188 629.257812 889.789062 543.847656 799.757812 C 458.441406 709.871094 461.890625 567.632812 551.898438 482.207031 C 641.765625 396.777344 783.96875 400.230469 869.375 490.261719 C 954.785156 580.148438 951.1875 722.382812 861.324219 807.8125 Z M 861.324219 807.8125 "/><path style=" stroke:none;fill-rule:nonzero;fill:#000000;fill-opacity:1;" d="M 706.613281 943.863281 C 627.53125 943.863281 548.59375 912.800781 489.929688 851.101562 C 434.859375 793.285156 405.671875 717.351562 407.683594 637.53125 C 409.699219 557.710938 442.625 483.355469 500.570312 428.417969 C 620.054688 314.800781 809.5625 319.546875 923.152344 439.058594 C 978.222656 496.875 1007.410156 572.8125 1005.394531 652.632812 C 1003.382812 732.449219 970.457031 806.804688 912.511719 861.742188 C 905.648438 868.269531 898.488281 874.453125 891.035156 880.296875 C 883.582031 886.140625 875.867188 891.617188 867.894531 896.726562 C 859.917969 901.835938 851.722656 906.554688 843.296875 910.882812 C 834.875 915.210938 826.265625 919.128906 817.46875 922.636719 C 808.671875 926.144531 799.726562 929.226562 790.636719 931.882812 C 781.546875 934.539062 772.351562 936.757812 763.050781 938.539062 C 753.75 940.320312 744.386719 941.65625 734.960938 942.546875 C 725.53125 943.433594 716.082031 943.875 706.613281 943.863281 Z M 706.46875 360.105469 C 635.871094 360.105469 565.273438 386.136719 510.203125 438.484375 C 454.988281 490.980469 423.644531 561.738281 421.632812 637.960938 C 419.761719 714.042969 447.511719 786.382812 499.996094 841.609375 C 552.476562 896.835938 623.21875 928.1875 699.421875 930.203125 C 775.484375 932.359375 847.808594 904.3125 903.023438 851.820312 C 958.234375 799.328125 989.578125 728.566406 991.59375 652.34375 C 993.460938 576.261719 965.710938 503.921875 913.230469 448.695312 C 857.152344 389.730469 781.8125 360.105469 706.46875 360.105469 Z M 706.613281 876.558594 C 645.359375 876.558594 584.25 852.394531 538.816406 804.648438 C 450.820312 712.171875 454.558594 565.191406 547.011719 477.316406 C 591.871094 434.746094 650.535156 412.308594 712.363281 413.605469 C 774.191406 415.1875 831.703125 440.640625 874.265625 485.515625 C 962.261719 577.988281 958.523438 724.972656 866.070312 812.84375 C 860.757812 817.910156 855.222656 822.710938 849.453125 827.246094 C 843.6875 831.78125 837.714844 836.035156 831.542969 840 C 825.371094 843.964844 819.019531 847.628906 812.5 850.984375 C 805.976562 854.34375 799.308594 857.386719 792.492188 860.109375 C 785.679688 862.832031 778.753906 865.222656 771.710938 867.28125 C 764.667969 869.34375 757.546875 871.0625 750.339844 872.445312 C 743.132812 873.824219 735.878906 874.859375 728.574219 875.542969 C 721.269531 876.230469 713.949219 876.570312 706.613281 876.558594 Z M 706.324219 427.410156 C 650.25 427.410156 597.335938 448.550781 556.5 487.382812 C 514.371094 527.507812 490.359375 581.585938 488.921875 639.6875 C 487.484375 697.789062 508.765625 753.015625 548.738281 795.15625 C 631.414062 882.167969 769.445312 885.617188 856.433594 802.921875 C 898.5625 762.796875 922.574219 708.722656 924.015625 650.617188 C 925.453125 592.515625 904.171875 537.289062 864.199219 495.148438 C 824.082031 453.011719 770.019531 428.992188 711.933594 427.554688 C 710.0625 427.410156 708.195312 427.410156 706.324219 427.410156 Z M 706.324219 427.410156 "/><path style=" stroke:none;fill-rule:nonzero;fill:#ff554f;fill-opacity:1;" d="M 662.183594 524.203125 L 574.042969 676.648438 C 554.34375 710.878906 578.933594 753.59375 618.472656 753.59375 L 794.609375 753.59375 C 834.148438 753.59375 858.734375 710.878906 839.039062 676.648438 L 750.898438 524.203125 C 731.199219 489.972656 681.882812 489.972656 662.183594 524.203125 Z M 662.183594 524.203125 "/><path style=" stroke:none;fill-rule:nonzero;fill:#000000;fill-opacity:1;" d="M 794.609375 760.496094 L 618.472656 760.496094 C 615.925781 760.503906 613.394531 760.34375 610.867188 760.015625 C 608.34375 759.691406 605.851562 759.199219 603.394531 758.546875 C 600.933594 757.894531 598.527344 757.082031 596.175781 756.113281 C 593.820312 755.140625 591.542969 754.023438 589.335938 752.75 C 587.128906 751.480469 585.015625 750.074219 582.996094 748.527344 C 580.976562 746.976562 579.066406 745.304688 577.265625 743.507812 C 575.464844 741.707031 573.789062 739.796875 572.238281 737.78125 C 570.6875 735.761719 569.277344 733.648438 568.003906 731.445312 C 566.722656 729.242188 565.589844 726.96875 564.605469 724.617188 C 563.625 722.269531 562.800781 719.863281 562.136719 717.40625 C 561.472656 714.945312 560.972656 712.453125 560.636719 709.929688 C 560.300781 707.402344 560.132812 704.867188 560.132812 702.320312 C 560.132812 699.773438 560.300781 697.238281 560.636719 694.710938 C 560.972656 692.1875 561.472656 689.695312 562.136719 687.238281 C 562.800781 684.777344 563.625 682.371094 564.605469 680.023438 C 565.589844 677.671875 566.722656 675.398438 568.003906 673.199219 L 656 520.605469 C 657.257812 518.390625 658.660156 516.269531 660.203125 514.238281 C 661.746094 512.210938 663.414062 510.292969 665.210938 508.484375 C 667.007812 506.679688 668.917969 505 670.9375 503.445312 C 672.957031 501.894531 675.074219 500.480469 677.28125 499.210938 C 679.488281 497.9375 681.773438 496.820312 684.128906 495.851562 C 686.488281 494.882812 688.898438 494.078125 691.363281 493.429688 C 693.828125 492.785156 696.324219 492.304688 698.851562 491.988281 C 701.382812 491.675781 703.921875 491.53125 706.46875 491.554688 C 727.460938 491.554688 746.296875 502.484375 756.9375 520.605469 L 844.933594 673.199219 C 855.429688 691.460938 855.429688 713.179688 844.933594 731.445312 C 843.675781 733.65625 842.28125 735.773438 840.746094 737.800781 C 839.207031 739.824219 837.542969 741.742188 835.753906 743.546875 C 833.960938 745.351562 832.058594 747.027344 830.042969 748.578125 C 828.03125 750.132812 825.921875 751.542969 823.71875 752.8125 C 821.515625 754.085938 819.242188 755.203125 816.890625 756.171875 C 814.539062 757.140625 812.132812 757.949219 809.675781 758.597656 C 807.21875 759.246094 804.726562 759.730469 802.207031 760.046875 C 799.683594 760.367188 797.152344 760.515625 794.609375 760.496094 Z M 706.46875 505.503906 C 690.507812 505.503906 676.128906 513.847656 668.078125 527.652344 L 580.082031 680.246094 C 572.03125 694.195312 572.03125 710.734375 580.082031 724.539062 C 588.132812 738.492188 602.367188 746.6875 618.472656 746.6875 L 794.609375 746.6875 C 810.566406 746.6875 824.945312 738.347656 833 724.539062 C 841.050781 710.589844 841.050781 694.050781 833 680.246094 L 745.003906 527.652344 C 744.039062 525.964844 742.96875 524.34375 741.789062 522.796875 C 740.609375 521.25 739.335938 519.789062 737.960938 518.410156 C 736.589844 517.035156 735.132812 515.753906 733.589844 514.570312 C 732.046875 513.386719 730.429688 512.308594 728.746094 511.339844 C 727.058594 510.371094 725.316406 509.519531 723.515625 508.78125 C 721.71875 508.042969 719.878906 507.429688 717.996094 506.9375 C 716.113281 506.441406 714.210938 506.078125 712.28125 505.835938 C 710.351562 505.597656 708.414062 505.488281 706.46875 505.503906 Z M 662.183594 524.203125 Z M 662.183594 524.203125 "/><path style=" stroke:none;fill-rule:nonzero;fill:#000000;fill-opacity:1;" d="M 699.566406 555.699219 L 713.515625 555.699219 L 713.515625 625.738281 L 699.566406 625.738281 Z M 699.566406 555.699219 "/></g></svg>