<svg xmlns="http://www.w3.org/2000/svg" xmlns:xlink="http://www.w3.org/1999/xlink" width="1920" zoomAndPan="magnify" viewBox="0 0 1440 1447.9199" height="1920" preserveAspectRatio="xMidYMid meet" version="1.2"><defs><clipPath id="abe60be29c"><path d="M 263 163 L 1177 163 L 1177 1295.929688 L 263 1295.929688 Z M 263 163 "/></clipPath><clipPath id="c03ea95c8e"><path d="M 561 143.992188 L 879 143.992188 L 879 244 L 561 244 Z M 561 143.992188 "/></clipPath></defs><g id="8bb723e4f8"><g clip-rule="nonzero" clip-path="url(#abe60be29c)"><path style=" stroke:none;fill-rule:nonzero;fill:#c07d1c;fill-opacity:1;" d="M 1136.941406 1295.929688 L 302.910156 1295.929688 C 280.976562 1295.929688 263.191406 1278.144531 263.191406 1256.207031 L 263.191406 203.574219 C 263.191406 181.636719 280.976562 163.851562 302.910156 163.851562 L 1136.941406 163.851562 C 1158.875 163.851562 1176.65625 181.636719 1176.65625 203.574219 L 1176.65625 1256.207031 C 1176.65625 1278.144531 1158.875 1295.929688 1136.941406 1295.929688 "/></g><path style=" stroke:none;fill-rule:nonzero;fill:#fbfcfc;fill-opacity:1;" d="M 938.363281 1216.484375 L 342.625 1216.484375 L 342.625 243.296875 L 1097.226562 243.296875 L 1097.226562 1057.597656 L 938.363281 1216.484375 "/><path style=" stroke:none;fill-rule:nonzero;fill:#4d8ace;fill-opacity:1;" d="M 958.21875 719.960938 L 481.628906 719.960938 L 481.628906 322.742188 L 958.21875 322.742188 L 958.21875 719.960938 "/><path style=" stroke:none;fill-rule:nonzero;fill:#f2a91a;fill-opacity:1;" d="M 481.628906 620.65625 C 520.859375 555.261719 574.113281 499.40625 637.546875 457.113281 L 660.351562 441.90625 L 779.5 441.90625 L 819.214844 481.628906 L 878.789062 481.628906 L 878.789062 528.207031 C 878.789062 557.328125 855.1875 580.933594 826.070312 580.933594 L 799.355469 580.933594 C 786.46875 580.933594 773.921875 585.113281 763.617188 592.851562 C 723.609375 622.855469 700.066406 669.949219 700.066406 719.960938 L 481.628906 719.960938 L 481.628906 620.65625 "/><path style=" stroke:none;fill-rule:nonzero;fill:#8b4a31;fill-opacity:1;" d="M 719.925781 441.90625 L 719.925781 524.753906 C 719.925781 535.296875 715.734375 545.402344 708.289062 552.847656 C 692.785156 568.355469 667.632812 568.355469 652.128906 552.847656 C 644.683594 545.402344 640.492188 535.296875 640.492188 524.753906 L 640.492188 441.90625 L 719.925781 441.90625 "/><path style=" stroke:none;fill-rule:nonzero;fill:#f03e3d;fill-opacity:1;" d="M 700.066406 680.238281 L 696.710938 680.238281 C 618.355469 680.238281 544.636719 638.488281 504.320312 571.292969 C 498.675781 561.886719 501.71875 549.6875 511.125 544.042969 C 520.53125 538.398438 532.730469 541.445312 538.371094 550.851562 C 571.554688 606.15625 632.222656 640.515625 696.710938 640.515625 L 700.066406 640.515625 C 711.035156 640.515625 719.925781 649.410156 719.925781 660.378906 C 719.925781 671.34375 711.035156 680.238281 700.066406 680.238281 "/><g clip-rule="nonzero" clip-path="url(#c03ea95c8e)"><path style=" stroke:none;fill-rule:nonzero;fill:#6f3c29;fill-opacity:1;" d="M 839.074219 243.296875 L 600.777344 243.296875 C 578.84375 243.296875 561.0625 225.511719 561.0625 203.574219 L 561.0625 143.992188 L 878.789062 143.992188 L 878.789062 203.574219 C 878.789062 225.511719 861.003906 243.296875 839.074219 243.296875 "/></g><path style=" stroke:none;fill-rule:nonzero;fill:#87d08f;fill-opacity:1;" d="M 978.078125 898.707031 L 918.503906 898.707031 L 918.503906 839.125 L 839.074219 839.125 L 839.074219 898.707031 L 779.5 898.707031 L 779.5 978.152344 L 839.074219 978.152344 L 839.074219 1037.734375 L 918.503906 1037.734375 L 918.503906 978.152344 L 978.078125 978.152344 L 978.078125 898.707031 "/><path style=" stroke:none;fill-rule:nonzero;fill:#ecece9;fill-opacity:1;" d="M 561.0625 858.988281 L 402.199219 858.988281 L 402.199219 819.265625 L 561.0625 819.265625 L 561.0625 858.988281 "/><path style=" stroke:none;fill-rule:nonzero;fill:#ecece9;fill-opacity:1;" d="M 441.914062 938.429688 L 402.199219 938.429688 L 402.199219 898.707031 L 441.914062 898.707031 L 441.914062 938.429688 "/><path style=" stroke:none;fill-rule:nonzero;fill:#ecece9;fill-opacity:1;" d="M 700.066406 938.429688 L 481.628906 938.429688 L 481.628906 898.707031 L 700.066406 898.707031 L 700.066406 938.429688 "/><path style=" stroke:none;fill-rule:nonzero;fill:#ecece9;fill-opacity:1;" d="M 700.066406 1017.875 L 620.636719 1017.875 L 620.636719 978.152344 L 700.066406 978.152344 L 700.066406 1017.875 "/><path style=" stroke:none;fill-rule:nonzero;fill:#ecece9;fill-opacity:1;" d="M 580.917969 1017.875 L 402.199219 1017.875 L 402.199219 978.152344 L 580.917969 978.152344 L 580.917969 1017.875 "/><path style=" stroke:none;fill-rule:nonzero;fill:#ecece9;fill-opacity:1;" d="M 640.492188 1097.320312 L 402.199219 1097.320312 L 402.199219 1057.597656 L 640.492188 1057.597656 L 640.492188 1097.320312 "/><path style=" stroke:none;fill-rule:nonzero;fill:#ecece9;fill-opacity:1;" d="M 938.363281 1216.484375 L 938.363281 1057.597656 L 1097.226562 1057.597656 Z M 938.363281 1216.484375 "/><path style=" stroke:none;fill-rule:nonzero;fill:#a1681d;fill-opacity:1;" d="M 938.363281 1216.484375 L 1097.226562 1057.597656 L 1097.226562 1097.320312 L 978.078125 1216.484375 L 938.363281 1216.484375 "/></g></svg>